<svg width="70" height="70" viewBox="0 0 70 70" fill="none" xmlns="http://www.w3.org/2000/svg">
<circle cx="35" cy="35" r="35" fill="#009dfe"/>
<path d="M34.9575 47.0001C39.1614 47.0001 42.5693 46.3665 42.5693 45.5849C42.5693 44.8033 39.1614 44.1697 34.9575 44.1697C30.7536 44.1697 27.3457 44.8033 27.3457 45.5849C27.3457 46.3665 30.7536 47.0001 34.9575 47.0001Z" fill="white"/>
<path d="M30.6426 31.9426L23 23L26.2092 44.4166L30.6426 31.9426Z" fill="white"/>
<path d="M39.3574 31.9426L43.7904 44.3978L47 23L39.3574 31.9426Z" fill="white"/>
<path d="M34.9593 42.9826C38.7895 42.9826 41.9585 43.5085 42.4917 44.193L34.9593 23L27.4258 44.1949C27.9553 43.5096 31.1261 42.983 34.9593 42.983V42.9826Z" fill="white"/>
</svg>
