<svg width="512" height="512" viewBox="0 0 512 512" fill="none" xmlns="http://www.w3.org/2000/svg">
<g clip-path="url(#clip0_983_4138)">
<circle cx="256" cy="256" r="256" fill="#FF6201"/>
<path d="M255.695 343.772C286.443 343.772 311.37 339.138 311.37 333.421C311.37 327.704 286.443 323.069 255.695 323.069C224.946 323.069 200.02 327.704 200.02 333.421C200.02 339.138 224.946 343.772 255.695 343.772Z" fill="white"/>
<path d="M224.126 233.637L168.227 168.229L191.7 324.876L224.126 233.637Z" fill="white"/>
<path d="M287.871 233.637L320.295 324.739L343.771 168.229L287.871 233.637Z" fill="white"/>
<path d="M255.696 314.388C283.711 314.388 306.89 318.234 310.79 323.241L255.696 168.229L200.594 323.255C204.467 318.242 227.659 314.39 255.696 314.39V314.388Z" fill="white"/>
</g>
<defs>
<clipPath id="clip0_983_4138">
<rect width="512" height="512" fill="white"/>
</clipPath>
</defs>
</svg>
