<svg width="256" height="256" viewBox="0 0 256 256" fill="none" xmlns="http://www.w3.org/2000/svg">
<circle cx="128" cy="128" r="128" fill="#FF6201"/>
<path d="M127.845 171.886C143.22 171.886 155.683 169.568 155.683 166.71C155.683 163.851 143.22 161.534 127.845 161.534C112.471 161.534 100.008 163.851 100.008 166.71C100.008 169.568 112.471 171.886 127.845 171.886Z" fill="white"/>
<path d="M112.063 116.818L84.1133 84.1143L95.8498 162.438L112.063 116.818Z" fill="white"/>
<path d="M143.934 116.818L160.146 162.369L171.884 84.1143L143.934 116.818Z" fill="white"/>
<path d="M127.848 157.194C141.856 157.194 153.445 159.117 155.395 161.62L127.848 84.1143L100.297 161.627C102.234 159.121 113.829 157.195 127.848 157.195V157.194Z" fill="white"/>
</svg>
