<svg xmlns="http://www.w3.org/2000/svg" width="104" height="30" viewBox="0 0 104 30" fill="none"> <path d="M0.0731812 1.79277V3.58545H2.04879H4.0244V1.79277V8.32081e-05H2.04879H0.0731812V1.79277Z" fill="#1579FB"/> <path d="M9.32927 4.80027C8.64879 4.94662 7.73415 5.40027 7.25854 5.81735C7.04635 6.00759 6.65854 6.43198 6.40244 6.76857C5.83171 7.50027 5.18049 8.11491 4.68293 8.39296L4.31708 8.59783V14.6856V20.7808H5.37805H6.43903V15.6588C6.43903 11.2832 6.45366 10.4491 6.5561 9.96613C6.8561 8.4954 7.76342 7.4271 9.11708 6.94418C9.7244 6.73198 10.9829 6.67344 11.6561 6.83442C12.8342 7.11247 13.8293 7.92466 14.3927 9.07344C14.9342 10.1783 14.9268 10.1198 14.9268 15.7612V20.7808H15.9805H17.0415L17.0707 15.5637C17.1 9.77588 17.0854 9.95149 17.6049 8.87588C18.0732 7.8954 19.039 7.1271 20.1585 6.84174C20.7146 6.70271 21.7756 6.70271 22.3829 6.84174C24.0585 7.23686 25.2512 8.68564 25.5366 10.6466C25.5732 10.9466 25.6098 13.171 25.6098 15.9661V20.7808H26.6707H27.7317V15.9661C27.7317 12.9222 27.7024 10.9173 27.6512 10.5003C27.4024 8.46613 26.4 6.87101 24.6512 5.71491C22.7488 4.46369 20.561 4.35393 18.3951 5.41491C17.5317 5.83198 16.661 6.58564 16.3024 7.22223C16.1854 7.43442 16.061 7.61003 16.039 7.61003C16.0098 7.61003 15.8781 7.44174 15.739 7.23686C15.6 7.0393 15.2122 6.61491 14.8756 6.29296C14.1659 5.61979 13.3024 5.15149 12.3293 4.8954C11.539 4.69052 10.039 4.6393 9.32927 4.80027Z" fill="white"/> <path d="M36.6439 4.80021C35.4 4.99046 34.039 5.56119 33.0732 6.28558C32.422 6.77582 31.4268 7.82948 30.9878 8.4807C30.5634 9.1246 30.1537 10.0466 29.9195 10.9027L29.7439 11.5246L29.722 19.3758L29.7 27.2197H30.6585H31.6098V22.7417V18.2709L32.1073 18.7466C33.3146 19.91 34.7488 20.6636 36.3 20.9636C38.7073 21.4173 41.1293 20.9417 42.9439 19.6612C43.6317 19.1783 44.5829 18.1978 45.0439 17.5173C45.9439 16.1636 46.3098 14.9929 46.3683 13.2587C46.4122 12.0222 46.339 11.3636 46.0464 10.427C45.4171 8.40753 43.7634 6.51973 41.7439 5.50265C40.2805 4.77094 38.4366 4.51485 36.6439 4.80021ZM39.8634 6.94411C41.8976 7.5368 43.4707 9.14655 44.0927 11.2685C44.2098 11.6563 44.2317 11.9709 44.2317 12.988C44.2244 14.1368 44.2098 14.2758 44.0268 14.8173C43.5073 16.3831 42.2122 17.8173 40.6756 18.5417C39.9293 18.9002 39.3878 19.0319 38.4878 19.0758C37.0683 19.149 35.8244 18.8124 34.6537 18.0441C33.2707 17.1368 32.3195 15.8417 31.9756 14.4002C31.7781 13.5734 31.7781 12.3295 31.9756 11.51C32.5537 9.10265 34.5366 7.27338 37.0976 6.77582C37.2 6.76119 37.7415 6.75387 38.3049 6.76851C39.0805 6.78314 39.461 6.82704 39.8634 6.94411Z" fill="white"/> <path d="M54.3658 4.79285C51.6439 5.22456 49.1488 7.08309 48 9.53431C47.4219 10.7563 47.1805 12.2928 47.3268 13.7197C47.4439 14.8392 47.6488 15.5563 48.1097 16.5002C49.5731 19.4928 52.8439 21.3148 56.378 21.1172C57.3512 21.0587 58.2585 20.8685 59.0634 20.5465L59.6707 20.305L59.6927 19.0392L59.7073 17.7807L59.3561 18.0368C58.8731 18.3807 58.178 18.6953 57.4756 18.8855C56.9927 19.0172 56.6853 19.0465 55.7195 19.0538C54.7024 19.0611 54.4683 19.0392 53.9634 18.8928C51.739 18.2563 50.1 16.566 49.5585 14.3709C49.3756 13.6172 49.3975 11.9928 49.5951 11.2538C50.1439 9.23431 51.7536 7.63187 53.8902 6.98065C54.4829 6.79773 54.6658 6.78309 55.7195 6.77578C56.7292 6.76846 56.9707 6.79041 57.4609 6.93675C58.0536 7.10504 58.9317 7.50748 59.3049 7.78553C59.4292 7.87334 59.5683 7.97578 59.6195 8.00504C59.6853 8.04895 59.7073 7.78553 59.7073 6.81236V5.56846L59.3707 5.42212C57.9146 4.77821 56.0049 4.53675 54.3658 4.79285Z" fill="white"/> <path d="M67.0244 4.79263C65.7732 4.99019 64.4634 5.52433 63.3951 6.27799C62.261 7.08287 61.1561 8.42921 60.6586 9.64385C60.4098 10.2219 60.0732 11.4585 60.0732 11.7512V11.9268H56.2683H52.4561L52.4781 12.8926L52.5 13.8658L56.2903 13.8877L60.0732 13.9024V14.1146C60.0732 14.5609 60.4537 15.7975 60.8415 16.5731C61.6464 18.2195 62.9488 19.4707 64.7122 20.3121C66.8195 21.3073 69.5854 21.4024 71.722 20.5463L72.3293 20.3048L72.3512 19.039L72.3659 17.7804L71.9415 18.0731C71.3854 18.4536 70.8439 18.6951 70.1268 18.8926C69.6439 19.0243 69.3512 19.0463 68.3415 19.0536C67.2366 19.0536 67.0756 19.0317 66.4903 18.856C65.3268 18.4975 64.5147 17.9926 63.7025 17.1073C62.861 16.1999 62.3708 15.2195 62.1586 14.0048C61.6756 11.217 62.9561 8.65604 65.4659 7.39751C67.0025 6.62921 69.1756 6.51946 70.6903 7.12677C71.0854 7.28775 71.8683 7.71214 72.2049 7.94629L72.3659 8.06336V6.82677V5.58287L71.9488 5.39263C70.522 4.76336 68.6634 4.53653 67.0244 4.79263Z" fill="white"/> <path d="M80.4146 4.79294C77.6781 5.22465 75.2049 7.06855 74.0415 9.54904C73.4707 10.771 73.2293 12.2783 73.3756 13.7051C73.4927 14.8393 73.6976 15.5564 74.1585 16.5003C74.9707 18.1685 76.3244 19.471 78.1171 20.3198C80.2098 21.3076 82.9829 21.3954 85.1122 20.5466L85.7195 20.3051L85.7415 19.0466L85.7561 17.7881L85.3756 18.0515C84.4317 18.6881 83.4073 19.01 82.0976 19.0759C80.2756 19.1637 78.739 18.6442 77.5024 17.5173C76.2366 16.3685 75.5707 14.9564 75.4683 13.2076C75.322 10.7271 76.5951 8.53928 78.8561 7.39782C80.3854 6.62953 82.5659 6.51977 84.0805 7.12709C84.4756 7.28806 85.2585 7.71245 85.5951 7.9466L85.7561 8.06367V6.81977V5.56855L85.4195 5.42221C83.9634 4.77831 82.0537 4.53684 80.4146 4.79294Z" fill="white"/> <path d="M93.9366 4.79272C90.9439 5.28296 88.3756 7.45613 87.3951 10.3317C86.9415 11.6854 86.8756 13.6756 87.2488 15.1025C88.0098 18.0366 90.5707 20.3781 93.6512 20.9708C95.5463 21.3366 97.4927 21.0952 99.1098 20.3049C101.488 19.1488 103.141 16.9903 103.58 14.4586C103.727 13.6464 103.741 12.2342 103.61 11.4878C103.076 8.35613 100.551 5.6854 97.3829 4.90247C96.5707 4.69759 94.8366 4.64637 93.9366 4.79272ZM97.061 6.90735C98.7073 7.36101 100.171 8.56833 100.954 10.1269C101.371 10.961 101.576 11.8756 101.576 12.9513C101.576 14.7805 100.998 16.0976 99.6146 17.4147C98.9561 18.0439 98.3634 18.4244 97.639 18.7025C95.8317 19.383 93.8415 19.1781 92.0634 18.1317C91.522 17.8171 90.2488 16.5439 89.9342 16.0098C89.3707 15.0366 89.122 14.1293 89.122 12.9659C89.122 11.2317 89.6927 9.84881 90.9293 8.61223C91.8073 7.72686 92.9122 7.10491 94.061 6.84881C94.7268 6.70247 96.4244 6.73906 97.061 6.90735Z" fill="white"/> <path d="M94.4854 10.1271C92.8098 10.6686 91.9976 12.549 92.7293 14.1515C93.5342 15.9003 95.8976 16.3612 97.3098 15.0369C98.5171 13.91 98.5829 12.1466 97.4561 10.9466C96.8634 10.31 96.3439 10.0759 95.4512 10.0466C95.0342 10.032 94.6829 10.0612 94.4854 10.1271Z" fill="#1579FB"/> <path d="M0 12.9149V20.7808H1.06098H2.12195V12.9149V5.04905H1.06098H0V12.9149Z" fill="white"/> <path d="M34.8146 24.0147L34.7927 24.5488L34.4488 24.5708L34.0975 24.5927V25.0683V25.5366H34.4634H34.8292V26.6342C34.8292 27.9293 34.8951 28.1562 35.3122 28.3537C35.539 28.4635 35.7 28.4781 36.2341 28.4415C36.5853 28.4196 36.9073 28.383 36.9512 28.3537C36.9878 28.3318 37.0244 28.0976 37.0244 27.8342V27.3586L36.7024 27.4025C36.2707 27.4683 36.2195 27.3659 36.2195 26.3488V25.5366H36.6219H37.0244V25.0683V24.5927L36.6439 24.5708L36.2561 24.5488L36.2341 24.0147L36.2122 23.4879H35.5244H34.8366L34.8146 24.0147Z" fill="#1579FB"/> <path d="M84.7317 24V24.5122H84.4024H84.0732V25.017V25.5292L84.3878 25.5512L84.6951 25.5731L84.7317 26.7073C84.7683 27.9 84.8049 28.0463 85.1415 28.3097C85.2951 28.4341 85.4415 28.4634 85.8585 28.4634C86.1439 28.4634 86.5024 28.4414 86.6561 28.4195L86.9268 28.3683V27.8634V27.3512L86.6634 27.3951C86.2317 27.4829 86.1951 27.3951 86.1951 26.4073V25.5365H86.561H86.9268V25.0244V24.5122H86.561H86.1951V24V23.4878H85.4634H84.7317V24Z" fill="white"/> <path d="M9.54879 24.5122C8.90489 24.6 8.28294 25.0097 8.03416 25.4926C7.84391 25.8658 7.77806 26.6341 7.90245 27.1317C8.01221 27.6146 8.37806 28.0317 8.91221 28.2951C9.27806 28.4707 9.40977 28.5 10.0244 28.4926C10.7927 28.4926 11.0781 28.4048 11.561 28.0244C11.9927 27.6878 12.1756 27.2341 12.1756 26.5244C12.1756 25.8073 12.0732 25.4926 11.722 25.1341C11.2171 24.6219 10.4268 24.3951 9.54879 24.5122ZM10.3098 25.5805C10.6464 25.8146 10.7634 26.378 10.6024 26.9487C10.4415 27.5341 9.97318 27.6951 9.57806 27.3C9.3805 27.1024 9.36586 27.0439 9.36586 26.5609C9.36586 25.6536 9.79025 25.2146 10.3098 25.5805Z" fill="white"/> <path d="M25.9902 24.5853C25.778 24.6145 25.5585 24.6804 25.5073 24.7243C25.4341 24.7901 25.3976 24.7828 25.361 24.695C25.3317 24.6072 25.1854 24.5853 24.6219 24.5853H23.9268V26.4877V28.3901H24.6585H25.3902V27.4023C25.3902 25.9462 25.5732 25.6316 26.378 25.6975L26.7805 25.734V25.1194V24.5121L26.5829 24.5194C26.4658 24.5267 26.2024 24.556 25.9902 24.5853Z" fill="white"/> <path d="M57.7536 24.6441C56.8975 24.9514 56.4878 25.5441 56.4878 26.4734C56.4878 27.4465 56.7585 27.9368 57.4902 28.2807C58.1095 28.5784 59.2007 28.5935 59.8171 28.266C60.1829 28.0758 60.4024 27.8417 60.5488 27.4904L60.6585 27.2197H59.9341C59.2536 27.2197 59.1878 27.2343 59.0195 27.4026C58.7122 27.7099 58.2293 27.6002 58.061 27.1831C58.0024 27.0441 57.9512 26.8978 57.9512 26.8539C57.9512 26.8099 58.4341 26.7807 59.3488 26.7807H60.7463L60.6951 26.466C60.4756 25.0612 60 24.5782 58.7634 24.5343C58.2878 24.5124 58.039 24.5417 57.7536 24.6441ZM59.0488 25.6099C59.1293 25.6904 59.1951 25.8221 59.1951 25.9026C59.1951 26.0343 59.1439 26.049 58.5732 26.049C58.0171 26.049 57.9585 26.0343 58.0024 25.9173C58.1561 25.4782 58.7415 25.3026 59.0488 25.6099Z" fill="#1579FB"/> <path d="M69.2049 24.6222C69.0512 24.6808 68.9268 24.6954 68.9268 24.6515C68.9268 24.6149 68.6195 24.5856 68.2317 24.5856H67.5366V27.1832V29.7808H68.2683H69V29.0783C69 28.3905 69 28.3832 69.1683 28.4344C69.8854 28.6759 70.8878 28.493 71.2756 28.0539C71.6268 27.6588 71.7439 27.2783 71.7439 26.5539C71.7439 25.9247 71.722 25.8149 71.5244 25.4271C71.3781 25.1344 71.1951 24.9222 70.9902 24.7686C70.7049 24.571 70.6098 24.5491 70.0756 24.5344C69.6951 24.5198 69.3732 24.5564 69.2049 24.6222ZM70.0756 25.5661C70.7781 26.1588 70.4415 27.6588 69.6146 27.6588C69.4756 27.6588 69.2854 27.6076 69.1829 27.5417C68.8244 27.3076 68.6634 26.4661 68.8829 25.9466C69.1098 25.4125 69.6732 25.2295 70.0756 25.5661Z" fill="white"/> <path d="M74.7512 24.6146C74.2683 24.7463 73.8366 25.1853 73.7781 25.5951L73.7342 25.9024H74.4073C75.0512 25.9024 75.0805 25.8951 75.1464 25.7268C75.2708 25.3902 75.8415 25.3975 75.922 25.7341C75.9512 25.8292 75.9439 25.9316 75.922 25.9609C75.8927 25.9829 75.5488 26.0634 75.1537 26.1292C73.9537 26.3268 73.5951 26.5975 73.5878 27.3073C73.5805 27.7902 73.7415 28.1048 74.1 28.3243C74.3342 28.4707 74.4732 28.4999 74.9268 28.4926C75.2561 28.4853 75.5927 28.4341 75.7683 28.3609C75.9512 28.2804 76.0683 28.2658 76.0829 28.317C76.0976 28.3609 76.4195 28.3902 76.9244 28.3902H77.7293L77.5537 28.1999C77.3854 28.017 77.3781 27.9658 77.3561 26.7951C77.3488 26.1219 77.3195 25.4999 77.3049 25.4121C77.239 25.1048 76.8366 24.739 76.4415 24.6219C75.9951 24.4902 75.2415 24.4902 74.7512 24.6146ZM76.0025 27.0438C75.9366 27.4316 75.6951 27.6585 75.3586 27.6585C75.1537 27.6585 75.0586 27.6219 75 27.5195C74.8317 27.1902 74.9488 27.0073 75.4098 26.8829C76.0025 26.7292 76.0537 26.7365 76.0025 27.0438Z" fill="white"/> <path d="M81.6 24.5853C81.3878 24.6145 81.1683 24.6804 81.1171 24.7243C81.0439 24.7901 81.0073 24.7828 80.9707 24.695C80.9415 24.6072 80.7951 24.5853 80.2317 24.5853H79.5366V26.4877V28.3901H80.2683H81V27.4023C81 25.9462 81.1829 25.6316 81.9878 25.6975L82.3902 25.734V25.1194V24.5121L82.1927 24.5194C82.0756 24.5267 81.8122 24.556 81.6 24.5853Z" fill="white"/> <path d="M90.622 24.6292C90.4829 24.7023 90.3951 24.7096 90.3805 24.6657C90.3659 24.6145 90.0878 24.5853 89.6634 24.5853H88.9756V26.4877V28.3901H89.7073H90.439V27.2121C90.439 25.8145 90.5049 25.617 90.9659 25.6096C91.339 25.6096 91.3903 25.7999 91.3903 27.1609V28.3901H92.122H92.8537V26.9779C92.8537 25.6096 92.8463 25.5511 92.6634 25.1853C92.4 24.6511 92.1439 24.5121 91.4195 24.5121C91.039 24.5121 90.7683 24.5487 90.622 24.6292Z" fill="white"/> <path d="M96 24.6219C95.561 24.761 95.1073 25.1561 94.9024 25.5878C94.7707 25.8658 94.7341 26.0634 94.7341 26.5244C94.7341 27.439 95.0049 27.9146 95.7439 28.3024C96.0658 28.4707 96.1902 28.4927 96.8049 28.4927C97.1854 28.4927 97.6317 28.4488 97.8 28.4049C98.3049 28.2585 98.9268 27.6073 98.9268 27.2195C98.9268 27.1756 98.6488 27.1463 98.2024 27.1463C97.5585 27.1463 97.4561 27.161 97.3683 27.2927C97.061 27.739 96.4024 27.5561 96.2634 26.978L96.2195 26.7805H97.6171H99.0219L98.9707 26.4073C98.7878 25.0683 98.1951 24.5122 96.9512 24.5195C96.6073 24.5195 96.1829 24.5707 96 24.6219ZM97.3097 25.6537C97.5805 25.9976 97.5219 26.0488 96.878 26.0488C96.2195 26.0488 96.1463 25.9683 96.4756 25.6463C96.7244 25.3902 97.1049 25.3976 97.3097 25.6537Z" fill="white"/> <path d="M102.98 24.5853C102.776 24.6145 102.541 24.6804 102.454 24.7243C102.322 24.7975 102.293 24.7901 102.293 24.695C102.293 24.6072 102.176 24.5853 101.598 24.5853H100.902V26.4877V28.3901H101.59H102.271L102.307 27.3438C102.344 26.1804 102.424 25.9096 102.805 25.756C102.929 25.7048 103.178 25.6828 103.39 25.6975L103.763 25.734L103.741 25.1414C103.72 24.4682 103.727 24.4682 102.98 24.5853Z" fill="white"/> <path d="M0.0731812 24.6367C0.0731812 24.6733 0.439035 25.5075 0.878059 26.5026C1.69025 28.3099 1.69025 28.3099 1.57318 28.5367C1.46343 28.7489 1.42684 28.7635 1.11221 28.7489L0.768303 28.727L0.746352 29.2172C0.724401 29.6855 0.731718 29.7148 0.914645 29.7806C1.16343 29.8757 1.58782 29.8757 2.05611 29.7733C2.32684 29.7148 2.50245 29.6196 2.70001 29.4221C2.93416 29.1806 3.0366 28.9465 3.68782 26.9635C4.08294 25.7562 4.42684 24.7245 4.44147 24.6733C4.47074 24.6075 4.28782 24.5855 3.6805 24.5855H2.88294L2.67074 25.405C2.56099 25.8587 2.44391 26.2611 2.41464 26.2904C2.38538 26.3196 2.2244 25.9538 2.05611 25.4635L1.74147 24.5855H0.907327C0.446352 24.5855 0.0731812 24.6075 0.0731812 24.6367Z" fill="white"/> <path d="M16.039 26.1C16.061 27.4683 16.0756 27.6512 16.2073 27.8708C16.4781 28.3317 16.6903 28.4269 17.4 28.4195C17.7512 28.4122 18.4537 28.4049 18.9732 28.4049L19.9025 28.3976V26.4952V24.5854H19.1707H18.439V25.8512C18.439 27.0366 18.4317 27.1317 18.2927 27.2561C18.0951 27.4317 17.7147 27.4317 17.5903 27.2561C17.5098 27.1537 17.4878 26.8025 17.4878 25.8512V24.5854H16.7488H16.0171L16.039 26.1Z" fill="white"/> <path d="M43.2073 24.6365C43.1268 24.6584 43.0171 24.7096 42.9585 24.7609C42.878 24.8194 42.8488 24.8194 42.8268 24.7462C42.8049 24.6877 42.5927 24.6584 42.1024 24.6584H41.4146V26.5243V28.3901H42.1097H42.8049V27.4536C42.8049 25.9682 42.9658 25.6828 43.7634 25.6828H44.1951V25.134V24.5853L43.778 24.5926C43.5439 24.5999 43.2878 24.6218 43.2073 24.6365Z" fill="#1579FB"/> <path d="M48.3073 26.1C48.3293 27.7098 48.3878 27.9512 48.8269 28.2585C49.1269 28.4707 49.8147 28.5219 50.3488 28.361C50.583 28.2951 50.7512 28.2805 50.7659 28.3171C50.7805 28.361 51.1025 28.3902 51.483 28.3902H52.1708V26.5244V24.6585H51.4391H50.7073V25.8732C50.7073 26.539 50.6781 27.1463 50.6342 27.2195C50.5317 27.4171 50.1586 27.4756 49.9391 27.3366C49.7561 27.2195 49.7561 27.2122 49.7561 25.939V24.6585H49.0171H48.2781L48.3073 26.1Z" fill="#1579FB"/> </svg>