<svg width="83" height="26" viewBox="0 0 83 26" fill="none" xmlns="http://www.w3.org/2000/svg">
<path d="M11.9585 25.0116C16.1624 25.0116 19.5703 24.378 19.5703 23.5964C19.5703 22.8148 16.1624 22.1812 11.9585 22.1812C7.75461 22.1812 4.34668 22.8148 4.34668 23.5964C4.34668 24.378 7.75461 25.0116 11.9585 25.0116Z" fill="white"/>
<path d="M7.64256 9.95428L0 1.01172L3.20919 22.4283L7.64256 9.95428Z" fill="white"/>
<path d="M16.3574 9.95428L20.7904 22.4096L24 1.01172L16.3574 9.95428Z" fill="white"/>
<path d="M11.9583 20.9943C15.7886 20.9943 18.9575 21.5202 19.4907 22.2048L11.9583 1.01172L4.4248 22.2066C4.95436 21.5213 8.12513 20.9947 11.9583 20.9947V20.9943Z" fill="white"/>
<path d="M34.0687 11V6.34535H32.1724V5.25352H37.1144V6.34535H35.218V11H34.0687ZM39.1536 9.55189C39.483 9.90434 39.8968 10.0806 40.3948 10.0806C40.8928 10.0806 41.3027 9.90434 41.6245 9.55189C41.954 9.19177 42.1187 8.71673 42.1187 8.12676C42.1187 7.53679 41.954 7.06558 41.6245 6.71313C41.3027 6.35301 40.8928 6.17296 40.3948 6.17296C39.8968 6.17296 39.483 6.35301 39.1536 6.71313C38.8318 7.06558 38.6709 7.53679 38.6709 8.12676C38.6709 8.71673 38.8318 9.19177 39.1536 9.55189ZM42.452 10.2874C41.9157 10.8391 41.23 11.1149 40.3948 11.1149C39.5596 11.1149 38.8701 10.8391 38.3261 10.2874C37.7897 9.73577 37.5216 9.01555 37.5216 8.12676C37.5216 7.23797 37.7897 6.51775 38.3261 5.96608C38.8701 5.41442 39.5596 5.13859 40.3948 5.13859C41.23 5.13859 41.9157 5.41442 42.452 5.96608C42.996 6.51775 43.268 7.23797 43.268 8.12676C43.268 9.01555 42.996 9.73577 42.452 10.2874ZM44.4757 11V5.25352H49.4751V11H48.3258V6.28789H45.625V11H44.4757Z" fill="white"/>
<path d="M32.747 21.7744V16.0279H37.7465V21.7744H36.5972V17.0623H33.8963V21.7744H32.747ZM39.2455 24.073V16.0279H40.2799L40.3948 16.7175H40.4523C40.5749 16.5796 40.6783 16.4723 40.7626 16.3957C40.8469 16.3114 41.0269 16.2118 41.3027 16.0969C41.5862 15.9743 41.8965 15.913 42.2337 15.913C42.9999 15.913 43.632 16.185 44.13 16.729C44.628 17.273 44.8771 17.9971 44.8771 18.9012C44.8771 19.8053 44.628 20.5293 44.13 21.0733C43.632 21.6173 42.9999 21.8893 42.2337 21.8893C41.4445 21.8893 40.8507 21.6212 40.4523 21.0848H40.3948V24.073H39.2455ZM40.866 20.3148C41.1878 20.6749 41.5862 20.855 42.0613 20.855C42.5363 20.855 42.9309 20.6749 43.2451 20.3148C43.5669 19.9547 43.7278 19.4835 43.7278 18.9012C43.7278 18.3189 43.5669 17.8477 43.2451 17.4875C42.9309 17.1274 42.5363 16.9474 42.0613 16.9474C41.5862 16.9474 41.1878 17.1274 40.866 17.4875C40.5519 17.8477 40.3948 18.3189 40.3948 18.9012C40.3948 19.4835 40.5519 19.9547 40.866 20.3148ZM47.4253 20.3263C47.7548 20.6788 48.1686 20.855 48.6666 20.855C49.1646 20.855 49.5745 20.6788 49.8963 20.3263C50.2258 19.9662 50.3905 19.4911 50.3905 18.9012C50.3905 18.3112 50.2258 17.84 49.8963 17.4875C49.5745 17.1274 49.1646 16.9474 48.6666 16.9474C48.1686 16.9474 47.7548 17.1274 47.4253 17.4875C47.1035 17.84 46.9426 18.3112 46.9426 18.9012C46.9426 19.4911 47.1035 19.9662 47.4253 20.3263ZM50.7238 21.0619C50.1875 21.6135 49.5017 21.8893 48.6666 21.8893C47.8314 21.8893 47.1419 21.6135 46.5979 21.0619C46.0615 20.5102 45.7933 19.79 45.7933 18.9012C45.7933 18.0124 46.0615 17.2922 46.5979 16.7405C47.1419 16.1888 47.8314 15.913 48.6666 15.913C49.5017 15.913 50.1875 16.1888 50.7238 16.7405C51.2678 17.2922 51.5398 18.0124 51.5398 18.9012C51.5398 19.79 51.2678 20.5102 50.7238 21.0619ZM53.6095 18.4415H56.9999C56.9386 17.9741 56.7585 17.5986 56.4597 17.3151C56.1609 17.0317 55.7855 16.8899 55.3334 16.8899C54.8584 16.8899 54.4753 17.0317 54.1841 17.3151C53.8929 17.591 53.7014 17.9664 53.6095 18.4415ZM56.7126 20.1079H57.9193C57.7507 20.5677 57.4443 20.9814 56.9999 21.3492C56.5631 21.7093 56.0076 21.8893 55.3334 21.8893C54.4982 21.8893 53.8087 21.6135 53.2647 21.0619C52.7283 20.5102 52.4602 19.79 52.4602 18.9012C52.4602 18.0124 52.7283 17.2922 53.2647 16.7405C53.8087 16.1888 54.4982 15.913 55.3334 15.913C56.1149 15.913 56.77 16.1812 57.2987 16.7175C57.8274 17.2539 58.0917 17.9243 58.0917 18.7288C58.0917 18.7977 58.0802 18.9357 58.0572 19.1425L58.0342 19.3034H53.6095C53.6707 19.7938 53.8585 20.1846 54.1726 20.4757C54.4867 20.7669 54.8737 20.9124 55.3334 20.9124C55.6552 20.9124 55.9387 20.8358 56.1839 20.6826C56.4367 20.5217 56.6129 20.3301 56.7126 20.1079ZM59.3021 21.7744V16.0279H60.4514V18.6713L62.8649 16.0279H64.244L61.6581 18.8437L64.359 21.7744H62.9798L60.4514 19.0161V21.7744H59.3021ZM66.3702 21.7744V17.1198H64.4739V16.0279H69.4159V17.1198H67.5195V21.7744H66.3702ZM71.4551 20.3263C71.7845 20.6788 72.1983 20.855 72.6963 20.855C73.1943 20.855 73.6042 20.6788 73.926 20.3263C74.2555 19.9662 74.4202 19.4911 74.4202 18.9012C74.4202 18.3112 74.2555 17.84 73.926 17.4875C73.6042 17.1274 73.1943 16.9474 72.6963 16.9474C72.1983 16.9474 71.7845 17.1274 71.4551 17.4875C71.1333 17.84 70.9723 18.3112 70.9723 18.9012C70.9723 19.4911 71.1333 19.9662 71.4551 20.3263ZM74.7535 21.0619C74.2172 21.6135 73.5314 21.8893 72.6963 21.8893C71.8611 21.8893 71.1716 21.6135 70.6276 21.0619C70.0912 20.5102 69.8231 19.79 69.8231 18.9012C69.8231 18.0124 70.0912 17.2922 70.6276 16.7405C71.1716 16.1888 71.8611 15.913 72.6963 15.913C73.5314 15.913 74.2172 16.1888 74.7535 16.7405C75.2975 17.2922 75.5695 18.0124 75.5695 18.9012C75.5695 19.79 75.2975 20.5102 74.7535 21.0619ZM76.7772 24.073V16.0279H77.8116L77.9265 16.7175H77.984C78.1065 16.5796 78.21 16.4723 78.2943 16.3957C78.3785 16.3114 78.5586 16.2118 78.8344 16.0969C79.1179 15.9743 79.4282 15.913 79.7654 15.913C80.5316 15.913 81.1637 16.185 81.6617 16.729C82.1597 17.273 82.4087 17.9971 82.4087 18.9012C82.4087 19.8053 82.1597 20.5293 81.6617 21.0733C81.1637 21.6173 80.5316 21.8893 79.7654 21.8893C78.9762 21.8893 78.3824 21.6212 77.984 21.0848H77.9265V24.073H76.7772ZM78.3977 20.3148C78.7195 20.6749 79.1179 20.855 79.593 20.855C80.068 20.855 80.4626 20.6749 80.7767 20.3148C81.0985 19.9547 81.2594 19.4835 81.2594 18.9012C81.2594 18.3189 81.0985 17.8477 80.7767 17.4875C80.4626 17.1274 80.068 16.9474 79.593 16.9474C79.1179 16.9474 78.7195 17.1274 78.3977 17.4875C78.0836 17.8477 77.9265 18.3189 77.9265 18.9012C77.9265 19.4835 78.0836 19.9547 78.3977 20.3148Z" fill="white"/>
</svg>
