<svg width="94" height="94" viewBox="0 0 94 94" fill="none" xmlns="http://www.w3.org/2000/svg">
<circle opacity="0.3" cx="47" cy="47" r="46.5" stroke="white"/>
<circle cx="42.5" cy="33.5" r="1.5" fill="white"/>
<circle cx="42.5" cy="33.5" r="1.5" fill="white"/>
<circle cx="42.5" cy="33.5" r="1.5" fill="white"/>
<circle cx="51.5" cy="40.5" r="1.5" fill="white"/>
<circle cx="51.5" cy="40.5" r="1.5" fill="white"/>
<circle cx="51.5" cy="40.5" r="1.5" fill="white"/>
<path d="M23 67.6776L33.0885 57.5891C34.405 56.2726 36.1907 55.5329 38.0526 55.5329H51.2244C51.4563 55.5329 51.6788 55.625 51.8428 55.789C52.0068 55.9531 52.0989 56.1755 52.0989 56.4075C52.0989 59.766 49.3763 61.6141 46.0178 61.6141H41.2475H54.5683C55.5328 61.614 56.4832 61.3824 57.3395 60.9386C58.1958 60.4948 58.933 59.8518 59.489 59.0638L63.1429 53.8854C64.9229 51.3627 68.4865 50.9168 70.8331 52.9233C70.941 53.0155 71.011 53.1443 71.0297 53.2849C71.0485 53.4255 71.0147 53.5682 70.9347 53.6854L62.732 65.719C61.9104 66.9244 60.8067 67.9109 59.517 68.5926C58.2273 69.2743 56.7906 69.6306 55.3318 69.6306H41.5613C40.1101 69.6306 38.7183 70.207 37.692 71.233L35.9296 73H23V67.6776Z" stroke="white" stroke-width="2" stroke-miterlimit="10" stroke-linecap="round" stroke-linejoin="round"/>
<path d="M47.0009 49.1581C53.672 49.1581 59.08 43.7501 59.08 37.0791C59.08 30.408 53.672 25 47.0009 25C40.3299 25 34.9219 30.408 34.9219 37.0791C34.9219 43.7501 40.3299 49.1581 47.0009 49.1581Z" stroke="white" stroke-width="2" stroke-miterlimit="10" stroke-linecap="round" stroke-linejoin="round"/>
<path d="M43.8438 41.7595L49.7517 32.7834" stroke="white" stroke-width="2" stroke-miterlimit="10" stroke-linecap="round" stroke-linejoin="round"/>
</svg>
