<svg width="94" height="94" viewBox="0 0 94 94" fill="none" xmlns="http://www.w3.org/2000/svg">
<path d="M62.0376 36.4041C61.5244 33.3541 60.0142 30.5706 57.7045 28.4584C55.1382 26.1092 51.802 24.8162 48.3276 24.8162C45.6428 24.8162 43.0271 25.5861 40.7865 27.037C38.921 28.2412 37.3714 29.8698 36.2758 31.7847C35.802 31.6959 35.3085 31.6465 34.8149 31.6465C30.62 31.6465 27.2048 35.0617 27.2048 39.2566C27.2048 39.7995 27.264 40.3226 27.3627 40.8359C24.6484 42.81 23 45.9883 23 49.3738C23 52.108 24.0167 54.7631 25.8723 56.8655C27.7773 59.0173 30.2943 60.2906 32.979 60.4386H41.5466C42.2869 60.4386 42.8791 59.8464 42.8791 59.1061C42.8791 58.3658 42.2869 57.7736 41.5466 57.7736H33.0975C29.0605 57.5268 25.665 53.6872 25.665 49.364C25.665 46.5706 27.1653 43.9648 29.5836 42.5534C30.1462 42.2276 30.3831 41.5466 30.1659 40.9346C29.9685 40.4016 29.8698 39.839 29.8698 39.2369C29.8698 36.5126 32.0907 34.2918 34.8149 34.2918C35.3973 34.2918 35.9698 34.3905 36.5028 34.5879C37.1542 34.8248 37.8748 34.5287 38.1709 33.9068C40.0167 29.9883 44.0043 27.4614 48.3374 27.4614C54.161 27.4614 58.9679 31.8242 59.5207 37.6083C59.5799 38.2104 60.0339 38.694 60.6262 38.7927C65.0185 39.5429 68.335 43.5996 68.335 48.2289C68.335 53.1345 64.4756 57.3985 59.7181 57.7637H52.4435C51.7033 57.7637 51.111 58.356 51.111 59.0962C51.111 59.8365 51.7033 60.4287 52.4435 60.4287H59.8661C62.8766 60.2116 65.6897 58.8297 67.7822 56.52C69.8649 54.2301 71 51.2887 71 48.2289C70.9901 42.6915 67.2097 37.7662 62.0376 36.4041Z" fill="white"/>
<path d="M54.9997 50.6373C55.5228 50.1141 55.5228 49.2751 54.9997 48.752L47.9423 41.6946C47.6955 41.4479 47.3501 41.2998 47.0046 41.2998C46.6591 41.2998 46.3137 41.438 46.0669 41.6946L39.0095 48.752C38.4864 49.2751 38.4864 50.1141 39.0095 50.6373C39.2662 50.8939 39.6116 51.0321 39.9472 51.0321C40.2828 51.0321 40.6283 50.9038 40.8849 50.6373L45.6721 45.8501V67.8513C45.6721 68.5916 46.2643 69.1838 47.0046 69.1838C47.7449 69.1838 48.3371 68.5916 48.3371 67.8513V45.8501L53.1243 50.6373C53.6375 51.1604 54.4765 51.1604 54.9997 50.6373Z" fill="white"/>
<circle opacity="0.3" cx="47" cy="47" r="46.5" stroke="white"/>
</svg>
