<svg width="68" height="79" viewBox="0 0 68 79" fill="none" xmlns="http://www.w3.org/2000/svg">
<path d="M54.9907 1.65985C54.7565 1.56285 54.4988 1.53749 54.2503 1.58698C54.0017 1.63647 53.7733 1.75859 53.5942 1.93788L51.9375 3.59453L49.6402 1.29725C49.3999 1.05705 49.0741 0.922119 48.7344 0.922119C48.3946 0.922119 48.0688 1.05705 47.8285 1.29725L45.5312 3.59453L43.234 1.29725C42.9937 1.05705 42.6679 0.922119 42.3281 0.922119C41.9884 0.922119 41.6626 1.05705 41.4223 1.29725L39.125 3.59453L36.8277 1.29725C36.5874 1.05705 36.2616 0.922119 35.9219 0.922119C35.5821 0.922119 35.2563 1.05705 35.016 1.29725L32.7188 3.59453L30.4215 1.29725C30.1812 1.05705 29.8554 0.922119 29.5156 0.922119C29.1759 0.922119 28.85 1.05705 28.6098 1.29725L26.3125 3.59453L24.0152 1.29725C23.775 1.05705 23.4491 0.922119 23.1094 0.922119C22.7696 0.922119 22.4438 1.05705 22.2035 1.29725L19.9062 3.59453L17.609 1.29725C17.3687 1.05705 17.0429 0.922119 16.7031 0.922119C16.3634 0.922119 16.0375 1.05705 15.7973 1.29725L12.5942 4.50038C12.3539 4.7406 12.2188 5.06644 12.2188 5.40622V14.375H7.09375C6.75394 14.375 6.42805 14.51 6.18777 14.7502C5.94749 14.9905 5.8125 15.3164 5.8125 15.6562V23.3437H1.96875C1.62894 23.3437 1.30305 23.4787 1.06277 23.719C0.822489 23.9593 0.6875 24.2852 0.6875 24.625V29.75C0.6875 30.0898 0.822489 30.4157 1.06277 30.656C1.30305 30.8962 1.62894 31.0312 1.96875 31.0312H5.8125V77.1562C5.8125 77.496 5.94749 77.8219 6.18777 78.0622C6.42805 78.3025 6.75394 78.4375 7.09375 78.4375H60.9062C61.2461 78.4375 61.5719 78.3025 61.8122 78.0622C62.0525 77.8219 62.1875 77.496 62.1875 77.1562V31.0312H66.0312C66.3711 31.0312 66.697 30.8962 66.9372 30.656C67.1775 30.4157 67.3125 30.0898 67.3125 29.75V24.625C67.3125 24.2852 67.1775 23.9593 66.9372 23.719C66.697 23.4787 66.3711 23.3437 66.0312 23.3437H62.1875V15.6562C62.1875 15.3164 62.0525 14.9905 61.8122 14.7502C61.5719 14.51 61.2461 14.375 60.9062 14.375H55.7812V2.84372C55.7813 2.59033 55.7062 2.34262 55.5655 2.13189C55.4248 1.92116 55.2248 1.75689 54.9907 1.65985ZM14.7812 5.93666L16.7031 4.01478L19.0004 6.31206C19.2407 6.55226 19.5665 6.6872 19.9062 6.6872C20.246 6.6872 20.5718 6.55226 20.8121 6.31206L23.1094 4.01478L25.4067 6.31206C25.6469 6.55226 25.9728 6.6872 26.3125 6.6872C26.6522 6.6872 26.9781 6.55226 27.2183 6.31206L29.5156 4.01478L31.8129 6.31206C32.0532 6.55226 32.379 6.6872 32.7188 6.6872C33.0585 6.6872 33.3843 6.55226 33.6246 6.31206L35.9219 4.01478L38.2192 6.31206C38.4594 6.55226 38.7853 6.6872 39.125 6.6872C39.4647 6.6872 39.7906 6.55226 40.0308 6.31206L42.3281 4.01478L44.6254 6.31206C44.8657 6.55226 45.1915 6.6872 45.5312 6.6872C45.871 6.6872 46.1968 6.55226 46.4371 6.31206L48.7344 4.01478L51.0317 6.31206C51.2719 6.55226 51.5978 6.6872 51.9375 6.6872C52.2772 6.6872 52.6031 6.55226 52.8433 6.31206L53.2188 5.93666V20.7812H14.7812V5.93666ZM3.25 28.4687V25.9062H5.8125V28.4687H3.25ZM59.625 75.875H8.375V29.75H59.625V75.875ZM64.75 25.9062V28.4687H62.1875V25.9062H64.75ZM59.625 16.9375V27.1875H8.375V16.9375H12.2188V20.7812H10.9375V23.3437H57.0625V20.7812H55.7812V16.9375H59.625Z" fill="#767470"/>
<path d="M12.2188 45.125H55.7812C56.1211 45.125 56.4469 44.99 56.6872 44.7497C56.9275 44.5095 57.0625 44.1836 57.0625 43.8438V33.5938C57.0625 33.2539 56.9275 32.928 56.6872 32.6878C56.4469 32.4475 56.1211 32.3125 55.7812 32.3125H12.2188C11.8789 32.3125 11.5531 32.4475 11.3128 32.6878C11.0725 32.928 10.9375 33.2539 10.9375 33.5938V43.8438C10.9375 44.1836 11.0725 44.5095 11.3128 44.7497C11.5531 44.99 11.8789 45.125 12.2188 45.125ZM13.5 34.875H54.5V42.5625H13.5V34.875ZM12.2188 59.2188H22.4688C22.8086 59.2188 23.1345 59.0838 23.3747 58.8435C23.615 58.6032 23.75 58.2773 23.75 57.9375V48.9688C23.75 48.6289 23.615 48.303 23.3747 48.0628C23.1345 47.8225 22.8086 47.6875 22.4688 47.6875H12.2188C11.8789 47.6875 11.5531 47.8225 11.3128 48.0628C11.0725 48.303 10.9375 48.6289 10.9375 48.9688V57.9375C10.9375 58.2773 11.0725 58.6032 11.3128 58.8435C11.5531 59.0838 11.8789 59.2188 12.2188 59.2188ZM13.5 50.25H21.1875V56.6562H13.5V50.25ZM12.2188 73.3125H22.4688C22.8086 73.3125 23.1345 73.1775 23.3747 72.9372C23.615 72.6969 23.75 72.3711 23.75 72.0312V63.0625C23.75 62.7227 23.615 62.3968 23.3747 62.1565C23.1345 61.9162 22.8086 61.7812 22.4688 61.7812H12.2188C11.8789 61.7812 11.5531 61.9162 11.3128 62.1565C11.0725 62.3968 10.9375 62.7227 10.9375 63.0625V72.0312C10.9375 72.3711 11.0725 72.6969 11.3128 72.9372C11.5531 73.1775 11.8789 73.3125 12.2188 73.3125ZM13.5 64.3438H21.1875V70.75H13.5V64.3438ZM37.8438 47.6875H27.5938C27.2539 47.6875 26.928 47.8225 26.6878 48.0628C26.4475 48.303 26.3125 48.6289 26.3125 48.9688V57.9375C26.3125 58.2773 26.4475 58.6032 26.6878 58.8435C26.928 59.0838 27.2539 59.2188 27.5938 59.2188H37.8438C38.1836 59.2188 38.5095 59.0838 38.7497 58.8435C38.99 58.6032 39.125 58.2773 39.125 57.9375V48.9688C39.125 48.6289 38.99 48.303 38.7497 48.0628C38.5095 47.8225 38.1836 47.6875 37.8438 47.6875ZM36.5625 56.6562H28.875V50.25H36.5625V56.6562ZM37.8438 61.7812H27.5938C27.2539 61.7812 26.928 61.9162 26.6878 62.1565C26.4475 62.3968 26.3125 62.7227 26.3125 63.0625V72.0312C26.3125 72.3711 26.4475 72.6969 26.6878 72.9372C26.928 73.1775 27.2539 73.3125 27.5938 73.3125H37.8438C38.1836 73.3125 38.5095 73.1775 38.7497 72.9372C38.99 72.6969 39.125 72.3711 39.125 72.0312V63.0625C39.125 62.7227 38.99 62.3968 38.7497 62.1565C38.5095 61.9162 38.1836 61.7812 37.8438 61.7812ZM36.5625 70.75H28.875V64.3438H36.5625V70.75ZM55.7812 47.6875H42.9688C42.6289 47.6875 42.303 47.8225 42.0628 48.0628C41.8225 48.303 41.6875 48.6289 41.6875 48.9688V72.0312C41.6875 72.3711 41.8225 72.6969 42.0628 72.9372C42.303 73.1775 42.6289 73.3125 42.9688 73.3125H55.7812C56.1211 73.3125 56.4469 73.1775 56.6872 72.9372C56.9275 72.6969 57.0625 72.3711 57.0625 72.0312V48.9688C57.0625 48.6289 56.9275 48.303 56.6872 48.0628C56.4469 47.8225 56.1211 47.6875 55.7812 47.6875ZM54.5 70.75H44.25V50.25H54.5V70.75Z" fill="#767470"/>
<path d="M46.8125 55.375H51.9375V57.9375H46.8125V55.375ZM46.8125 60.5H51.9375V63.0625H46.8125V60.5ZM48.0938 37.4375H50.6562V40H48.0938V37.4375Z" fill="#767470"/>
</svg>
