<svg width="78" height="61" viewBox="0 0 78 61" fill="none" xmlns="http://www.w3.org/2000/svg">
<path d="M21.0627 28.4594H23.6252C23.6331 25.4671 22.6848 22.5506 20.9186 20.1351C19.1525 17.7196 16.6608 15.9317 13.8069 15.0319C13.3829 14.8936 12.9397 14.8227 12.4937 14.8218V17.3843C12.6752 17.386 12.8555 17.4158 13.0279 17.4727C15.3631 18.2088 17.4021 19.6718 18.8474 21.6481C20.2928 23.6245 21.0689 26.0109 21.0627 28.4594Z" fill="#767470"/>
<path d="M74.852 43.6935L40.2813 31.7061V21.9763C40.2846 17.3541 38.815 12.8512 36.0858 9.12075C33.3567 5.39033 29.5099 2.62651 25.1037 1.2303C23.3302 0.651832 21.4447 0.503042 19.6025 0.796195C17.7602 1.08935 16.014 1.81605 14.5077 2.91643L5.99638 9.09718C5.817 9.21505 5.6325 9.31755 5.45825 9.4444C5.30322 9.55843 5.16612 9.68912 5.01622 9.80955L4.8535 9.92743V9.93768C3.50529 11.0506 2.42103 12.449 1.67898 14.0319C0.93694 15.6148 0.555633 17.3427 0.562594 19.0909V27.0654C0.557997 28.7254 1.01618 30.3539 1.88571 31.7679C2.75524 33.182 4.00169 34.3257 5.48516 35.0707L5.44672 35.1886L66.5213 54.775V56.3125C66.5157 57.0613 66.7316 57.7949 67.142 58.4212C67.5524 59.0475 68.1388 59.5384 68.8276 59.8321C69.3191 60.05 69.8505 60.1635 70.3882 60.1652C71.3484 60.1617 72.2719 59.7956 72.9737 59.1402C74.3792 57.8425 75.5013 56.2683 76.2695 54.5163C77.0377 52.7643 77.4354 50.8724 77.4376 48.9594V47.3246C77.4374 46.5257 77.1883 45.7467 76.7249 45.096C76.2615 44.4452 75.6069 43.955 74.852 43.6935ZM67.4438 52.3816L63.4015 51.085L66.0921 48.3765L64.2753 46.5699L60.6596 50.2061L55.6346 48.5943L58.3252 45.8767L56.5058 44.0727L52.9029 47.7166L47.8804 46.1061L50.5711 43.3911L48.7517 41.5871L45.1437 45.2284L40.1237 43.6179L42.8144 40.9068L40.9976 39.1002L37.3806 42.739L32.3568 41.1284L39.3396 34.0918L73.7604 46.0266L67.4438 52.3816ZM37.7188 32.0905L31.3126 38.5467V35.8471L37.7188 29.3909V32.0905ZM37.7188 21.9763V25.7534L31.3126 32.2096V28.4594C31.3072 27.5649 31.2473 26.6715 31.1332 25.7842L37.5267 19.3331C37.6512 20.2087 37.7154 21.0919 37.7188 21.9763ZM36.8707 16.3529L30.5438 22.7386C29.9356 20.486 28.9673 18.3465 27.6764 16.4029L33.747 10.2926C33.8367 10.4092 33.934 10.5168 34.0199 10.636C35.2814 12.3699 36.2448 14.302 36.8707 16.3529ZM16.0119 4.99205C17.1935 4.12845 18.5636 3.55837 20.009 3.3289C21.4544 3.09943 22.9337 3.21716 24.3247 3.67237C27.2391 4.59353 29.8909 6.1988 32.0583 8.35405L26.1261 14.326C23.481 11.2258 20.0182 8.93101 16.1323 7.70318C15.1254 7.38618 14.0813 7.20267 13.0266 7.15737L16.0119 4.99205ZM3.12509 27.0654V19.0909C3.12019 17.7147 3.42164 16.3547 4.00758 15.1095C4.59352 13.8643 5.44925 12.7651 6.51272 11.8916L7.38653 11.251C8.89511 10.2455 10.6653 9.7043 12.4782 9.69424C13.4545 9.69542 14.4248 9.84755 15.3546 10.1452C19.2477 11.3719 22.647 13.8104 25.0567 17.1049C27.4664 20.3994 28.7605 24.3777 28.7501 28.4594V39.9061L7.58769 33.1706C6.29026 32.7615 5.15753 31.9485 4.35473 30.8502C3.55194 29.7519 3.12111 28.4258 3.12509 27.0654ZM71.2312 57.2594C71.0479 57.4275 70.8197 57.5387 70.5743 57.5793C70.3289 57.6199 70.077 57.5882 69.8493 57.4881C69.6217 57.388 69.428 57.2237 69.2921 57.0154C69.1562 56.8072 69.0838 56.5638 69.0838 56.3151V54.3689L74.8751 48.543V48.9594C74.873 50.5194 74.5482 52.0621 73.9211 53.4904C73.294 54.9188 72.3782 56.202 71.2312 57.2594Z" fill="#767470"/>
</svg>
