<svg width="78" height="78" viewBox="0 0 78 78" fill="none" xmlns="http://www.w3.org/2000/svg">
<path d="M1.89239 13.5724L24.9459 0.88803C25.3318 0.671286 25.7677 0.559262 26.2102 0.563083C26.6528 0.566904 27.0866 0.686437 27.4687 0.909811L53.013 15.853C53.0476 15.871 53.0835 15.8774 53.1168 15.8979C53.5019 16.1226 53.821 16.4449 54.0419 16.8322C54.2627 17.2196 54.3776 17.6583 54.375 18.1042V27.9929C54.3749 28.4516 54.2517 28.9019 54.0182 29.2967C53.7847 29.6916 53.4495 30.0165 53.0476 30.2376L29.9851 42.922C29.4832 43.2024 28.9009 43.3036 28.3339 43.209C27.7669 43.1145 27.249 42.8298 26.8652 42.4018L1.8437 27.916H1.83474C1.44611 27.6918 1.12372 27.3688 0.900272 26.9797C0.676823 26.5906 0.560276 26.1494 0.562454 25.7007V15.8095C0.560596 15.3511 0.683353 14.9008 0.917606 14.5067C1.15186 14.1127 1.48879 13.7898 1.89239 13.5724ZM41.6252 33.5958L51.8125 27.9929V18.1042L39.9865 24.6091C42.558 26.1581 43.1755 29.9032 41.6252 33.5958ZM32.6808 37.0923C34.3465 38.0532 37.1127 36.5029 38.7283 33.706C40.344 30.909 40.3004 27.7353 38.6374 26.7757C38.2952 26.5827 37.9078 26.4841 37.515 26.49C35.9045 26.49 33.875 27.9288 32.5937 30.1595C30.9755 32.9577 31.0178 36.1327 32.6808 37.0923ZM28.75 40.6772L31.3304 39.2563C28.7589 37.706 28.1426 33.9622 29.693 30.2684L28.75 30.7873L28.7435 40.6785L28.75 40.6772ZM27.3406 28.6719C27.4008 28.6322 27.4495 28.5784 27.5135 28.5438L49.223 16.6051L26.1875 3.13278L4.14996 15.247L27.3406 28.6719ZM3.25308 25.7712L26.1875 39.0488V30.9641L3.11855 17.6109L3.0878 25.6738L3.25436 25.7622L3.25308 25.7712Z" fill="#767470"/>
<path d="M20.5205 30.6374L10.8432 25.0332L9.55936 27.2498L19.2366 32.854L20.5205 30.6374ZM39.1165 38.4658C39.2154 38.2499 39.3724 38.0657 39.5699 37.9338C39.7674 37.8019 39.9977 37.7275 40.235 37.7189L76.11 36.4376C76.2826 36.4296 76.455 36.4569 76.6166 36.5178C76.7782 36.5788 76.9257 36.6721 77.05 36.792C77.1743 36.912 77.2727 37.0561 77.3394 37.2155C77.406 37.3748 77.4394 37.5461 77.4374 37.7189V62.0626C77.4374 62.292 77.3758 62.5171 77.259 62.7145C77.1423 62.912 76.9747 63.0744 76.7737 63.185L51.1487 77.2787C50.9792 77.3717 50.7908 77.4252 50.5976 77.435C50.4045 77.4448 50.2116 77.4108 50.0335 77.3355C49.8554 77.2602 49.6966 77.1455 49.5691 77.0001C49.4416 76.8547 49.3487 76.6823 49.2973 76.4959V76.4844L39.0473 39.3396H39.0589C38.974 39.0507 38.9944 38.7411 39.1165 38.4658ZM51.8124 73.9898L74.7045 61.3989L58.603 51.6255L59.933 49.4372L74.8749 58.5046V39.8855L51.8124 52.5698V73.9898ZM50.8579 50.17L70.821 39.191L44.608 40.1276L53.7586 45.6844L52.4287 47.874L45.8021 43.8509L50.8579 50.17ZM49.2499 66.6943V52.2623L43.173 44.6658L49.2499 66.6943Z" fill="#767470"/>
</svg>
