<svg width="78" height="55" viewBox="0 0 78 55" fill="none" xmlns="http://www.w3.org/2000/svg">
<path d="M4.125 13.1875C4.125 13.5273 4.25999 13.8532 4.50027 14.0935C4.74055 14.3338 5.06644 14.4688 5.40625 14.4688H9.25C9.25 14.8086 9.38499 15.1345 9.62527 15.3747C9.86555 15.615 10.1914 15.75 10.5312 15.75H18.2188V23.4375H15.6562V26H17.9369L16.9631 30.8687C16.946 30.9531 16.9374 31.0389 16.9375 31.125V52.9062C16.9375 53.2461 17.0725 53.5719 17.3128 53.8122C17.5531 54.0525 17.8789 54.1875 18.2188 54.1875H25.9062C26.2461 54.1875 26.572 54.0525 26.8122 53.8122C27.0525 53.5719 27.1875 53.2461 27.1875 52.9062V31.125C27.1876 31.0389 27.179 30.9531 27.1619 30.8687L26.1881 26H27.1875V23.4375H25.9062V20.3753L27.3707 22.8161C27.4645 22.9722 27.5905 23.1066 27.7403 23.2102C27.8901 23.3138 28.0602 23.3843 28.2394 23.417L42.3332 25.9795C42.6061 26.0293 42.8878 25.9891 43.1359 25.865C43.3841 25.7409 43.5853 25.5397 43.7092 25.2915L44.6356 23.4375H59.5416L65.4969 43.6812L62.0375 48.2938C61.8947 48.4841 61.8078 48.7105 61.7864 48.9474C61.7651 49.1844 61.8101 49.4227 61.9165 49.6355C62.0229 49.8483 62.1865 50.0273 62.3889 50.1524C62.5913 50.2775 62.8246 50.3438 63.0625 50.3438H75.875C76.2148 50.3438 76.5407 50.2088 76.781 49.9685C77.0213 49.7282 77.1562 49.4023 77.1562 49.0625V43.1905C77.1361 33.6445 75.2819 24.1913 71.6943 15.3451L71.775 15.2375L71.602 15.1094C70.9458 13.4903 70.2343 11.8942 69.4688 10.3239V8.0625C69.4688 6.70327 68.9288 5.3997 67.9677 4.43858C67.0065 3.47745 65.703 2.9375 64.3438 2.9375H25.9062V1.65625C25.9062 1.31644 25.7713 0.990551 25.531 0.75027C25.2907 0.509989 24.9648 0.375 24.625 0.375H19.5C19.1602 0.375 18.8343 0.509989 18.594 0.75027C18.3537 0.990551 18.2188 1.31644 18.2188 1.65625V2.9375H10.5312C10.1914 2.9375 9.86555 3.07249 9.62527 3.31277C9.38499 3.55305 9.25 3.87894 9.25 4.21875H5.40625C5.06644 4.21875 4.74055 4.35374 4.50027 4.59402C4.25999 4.8343 4.125 5.16019 4.125 5.5V5.85747L1.15763 6.84659C0.902393 6.9316 0.680393 7.09479 0.523096 7.31303C0.365799 7.53127 0.281185 7.79348 0.28125 8.0625V10.625C0.281185 10.894 0.365799 11.1562 0.523096 11.3745C0.680393 11.5927 0.902393 11.7559 1.15763 11.8409L4.125 12.83V13.1875ZM24.625 51.625H19.5V31.2531L20.5506 26H23.5744L24.625 31.2531V51.625ZM65.625 47.7812L67.9313 44.7062C68.0508 44.5467 68.1314 44.3615 68.1668 44.1653C68.2022 43.9691 68.1913 43.7674 68.135 43.5762L61.7287 21.7949C61.6507 21.5295 61.4888 21.2964 61.2674 21.1306C61.0459 20.9648 60.7767 20.8751 60.5 20.875H43.8438C43.6046 20.8737 43.3698 20.9394 43.166 21.0646C42.9622 21.1898 42.7975 21.3696 42.6906 21.5835L41.8399 23.2863L37.4375 22.4843V5.5H57.9375V15.75C57.9375 16.7694 58.3425 17.7471 59.0633 18.4679C59.7842 19.1888 60.7618 19.5938 61.7812 19.5938H62.9049C63.7622 19.5936 64.5949 19.88 65.2707 20.4074C65.9465 20.9349 66.4266 21.6731 66.6346 22.5047L71.4483 41.7594C71.6409 42.5311 72.0329 43.2387 72.5849 43.8114C73.1369 44.3841 73.8296 44.8018 74.5938 45.0227V47.7812H65.625ZM74.563 42.1437C74.2557 41.8802 74.0358 41.5294 73.9326 41.138L69.1203 21.8808C68.9457 21.1835 68.6556 20.5205 68.2618 19.9192L69.8877 17.7513C72.8482 25.5497 74.4302 33.8034 74.563 42.1437ZM66.9062 8.0625V9.34375H63.0625V11.9062H67.3701C67.8595 12.9133 68.3425 13.9255 68.7794 14.9556L66.4181 18.1049C65.3778 17.4099 64.156 17.0365 62.9049 17.0312H61.7812C61.4414 17.0312 61.1156 16.8963 60.8753 16.656C60.635 16.4157 60.5 16.0898 60.5 15.75V5.5H64.3438C65.0234 5.5 65.6751 5.76998 66.1557 6.25054C66.6363 6.7311 66.9062 7.38288 66.9062 8.0625ZM34.875 5.5V8.0625H28.4688V10.625H34.875V13.1875H28.4688V15.75H34.875V22.0192L29.2683 20.9942L25.9062 15.3951V5.5H34.875ZM20.7812 2.9375H23.3438V23.4375H20.7812V2.9375ZM14.375 5.5V6.78125H16.9375V5.5H18.2188V13.1875H16.9375V11.9062H14.375V13.1875H11.8125V5.5H14.375ZM9.25 6.78125V8.0625H7.96875V10.625H9.25V11.9062H6.6875V6.78125H9.25ZM2.84375 9.70122V8.98628L4.125 8.55834V10.1292L2.84375 9.70122Z" fill="#767470"/>
<path d="M54.0938 9.34375H42.5625C42.2227 9.34375 41.8968 9.47874 41.6565 9.71902C41.4162 9.9593 41.2812 10.2852 41.2812 10.625V17.0312C41.2812 17.3711 41.4162 17.697 41.6565 17.9372C41.8968 18.1775 42.2227 18.3125 42.5625 18.3125H54.0938C54.4336 18.3125 54.7595 18.1775 54.9997 17.9372C55.24 17.697 55.375 17.3711 55.375 17.0312V10.625C55.375 10.2852 55.24 9.9593 54.9997 9.71902C54.7595 9.47874 54.4336 9.34375 54.0938 9.34375ZM52.8125 15.75H43.8438V11.9062H52.8125V15.75Z" fill="#767470"/>
</svg>
