<svg width="148" height="24" viewBox="0 0 148 24"  xmlns="http://www.w3.org/2000/svg">
<path d="M47.277 23.0947C51.32 23.0947 54.5975 22.4853 54.5975 21.7336C54.5975 20.9819 51.32 20.3726 47.277 20.3726C43.234 20.3726 39.9565 20.9819 39.9565 21.7336C39.9565 22.4853 43.234 23.0947 47.277 23.0947Z" />
<path d="M43.1264 8.61397L35.7764 0.0136719L38.8627 20.6106L43.1264 8.61397Z" />
<path d="M51.5078 8.61397L55.7711 20.5926L58.8579 0.0136719L51.5078 8.61397Z" />
<path d="M47.2774 19.2315C50.9611 19.2315 54.0087 19.7373 54.5215 20.3956L47.2774 0.0136719L40.0322 20.3974C40.5415 19.7383 43.5909 19.2319 47.2774 19.2319V19.2315Z" />
<path d="M3.32373 18V10.5216H0.276977V8.76742H8.217V10.5216H5.17024V18H3.32373ZM11.4933 15.6734C12.0226 16.2397 12.6873 16.5228 13.4875 16.5228C14.2877 16.5228 14.9462 16.2397 15.4633 15.6734C15.9926 15.0948 16.2573 14.3316 16.2573 13.3837C16.2573 12.4358 15.9926 11.6788 15.4633 11.1125C14.9462 10.5339 14.2877 10.2446 13.4875 10.2446C12.6873 10.2446 12.0226 10.5339 11.4933 11.1125C10.9762 11.6788 10.7177 12.4358 10.7177 13.3837C10.7177 14.3316 10.9762 15.0948 11.4933 15.6734ZM16.7928 16.8552C15.9311 17.7415 14.8293 18.1847 13.4875 18.1847C12.1457 18.1847 11.0378 17.7415 10.1638 16.8552C9.30206 15.9688 8.87121 14.8117 8.87121 13.3837C8.87121 11.9557 9.30206 10.7986 10.1638 9.91226C11.0378 9.02593 12.1457 8.58277 13.4875 8.58277C14.8293 8.58277 15.9311 9.02593 16.7928 9.91226C17.6668 10.7986 18.1038 11.9557 18.1038 13.3837C18.1038 14.8117 17.6668 15.9688 16.7928 16.8552ZM20.0441 18V8.76742H28.0764V18H26.2299V10.4293H21.8906V18H20.0441Z" />
<path d="M66.9825 18V8.76742H75.0148V18H73.1683V10.4293H68.829V18H66.9825ZM77.4232 21.693V8.76742H79.0851L79.2697 9.87533H79.3621C79.559 9.65375 79.7252 9.48141 79.8606 9.3583C79.996 9.22289 80.2853 9.06286 80.7285 8.87821C81.184 8.68125 81.6825 8.58277 82.2242 8.58277C83.4552 8.58277 84.4707 9.01978 85.2709 9.89379C86.0711 10.7678 86.4711 11.9311 86.4711 13.3837C86.4711 14.8363 86.0711 15.9996 85.2709 16.8736C84.4707 17.7476 83.4552 18.1847 82.2242 18.1847C80.9562 18.1847 80.0022 17.7538 79.3621 16.8921H79.2697V21.693H77.4232ZM80.0268 15.6549C80.5438 16.2335 81.1839 16.5228 81.9472 16.5228C82.7104 16.5228 83.3444 16.2335 83.8491 15.6549C84.3661 15.0763 84.6246 14.3193 84.6246 13.3837C84.6246 12.4481 84.3661 11.6911 83.8491 11.1125C83.3444 10.5339 82.7104 10.2446 81.9472 10.2446C81.1839 10.2446 80.5438 10.5339 80.0268 11.1125C79.5221 11.6911 79.2697 12.4481 79.2697 13.3837C79.2697 14.3193 79.5221 15.0763 80.0268 15.6549ZM90.5654 15.6734C91.0947 16.2397 91.7594 16.5228 92.5596 16.5228C93.3598 16.5228 94.0183 16.2397 94.5354 15.6734C95.0647 15.0948 95.3294 14.3316 95.3294 13.3837C95.3294 12.4358 95.0647 11.6788 94.5354 11.1125C94.0183 10.5339 93.3598 10.2446 92.5596 10.2446C91.7594 10.2446 91.0947 10.5339 90.5654 11.1125C90.0483 11.6788 89.7898 12.4358 89.7898 13.3837C89.7898 14.3316 90.0483 15.0948 90.5654 15.6734ZM95.8649 16.8552C95.0031 17.7415 93.9014 18.1847 92.5596 18.1847C91.2178 18.1847 90.1099 17.7415 89.2359 16.8552C88.3742 15.9688 87.9433 14.8117 87.9433 13.3837C87.9433 11.9557 88.3742 10.7986 89.2359 9.91226C90.1099 9.02593 91.2178 8.58277 92.5596 8.58277C93.9014 8.58277 95.0031 9.02593 95.8649 9.91226C96.7389 10.7986 97.1759 11.9557 97.1759 13.3837C97.1759 14.8117 96.7389 15.9688 95.8649 16.8552ZM100.501 12.6451H105.948C105.85 11.8942 105.561 11.291 105.08 10.8355C104.6 10.38 103.997 10.1523 103.271 10.1523C102.508 10.1523 101.892 10.38 101.424 10.8355C100.957 11.2787 100.649 11.8819 100.501 12.6451ZM105.487 15.3226H107.425C107.155 16.0612 106.662 16.7259 105.948 17.3168C105.247 17.8954 104.354 18.1847 103.271 18.1847C101.929 18.1847 100.821 17.7415 99.9471 16.8552C99.0854 15.9688 98.6545 14.8117 98.6545 13.3837C98.6545 11.9557 99.0854 10.7986 99.9471 9.91226C100.821 9.02593 101.929 8.58277 103.271 8.58277C104.526 8.58277 105.579 9.01362 106.428 9.87533C107.278 10.737 107.702 11.8142 107.702 13.1067C107.702 13.2175 107.684 13.4391 107.647 13.7715L107.61 14.03H100.501C100.6 14.8178 100.901 15.4457 101.406 15.9134C101.911 16.3812 102.532 16.6151 103.271 16.6151C103.788 16.6151 104.243 16.492 104.637 16.2458C105.043 15.9873 105.327 15.6795 105.487 15.3226ZM109.647 18V8.76742H111.494V13.0144L115.371 8.76742H117.587L113.432 13.2914L117.772 18H115.556L111.494 13.5684V18H109.647ZM121.003 18V10.5216H117.956V8.76742H125.896V10.5216H122.85V18H121.003ZM129.173 15.6734C129.702 16.2397 130.367 16.5228 131.167 16.5228C131.967 16.5228 132.626 16.2397 133.143 15.6734C133.672 15.0948 133.937 14.3316 133.937 13.3837C133.937 12.4358 133.672 11.6788 133.143 11.1125C132.626 10.5339 131.967 10.2446 131.167 10.2446C130.367 10.2446 129.702 10.5339 129.173 11.1125C128.656 11.6788 128.397 12.4358 128.397 13.3837C128.397 14.3316 128.656 15.0948 129.173 15.6734ZM134.472 16.8552C133.61 17.7415 132.509 18.1847 131.167 18.1847C129.825 18.1847 128.717 17.7415 127.843 16.8552C126.981 15.9688 126.551 14.8117 126.551 13.3837C126.551 11.9557 126.981 10.7986 127.843 9.91226C128.717 9.02593 129.825 8.58277 131.167 8.58277C132.509 8.58277 133.61 9.02593 134.472 9.91226C135.346 10.7986 135.783 11.9557 135.783 13.3837C135.783 14.8117 135.346 15.9688 134.472 16.8552ZM137.724 21.693V8.76742H139.385L139.57 9.87533H139.662C139.859 9.65375 140.025 9.48141 140.161 9.3583C140.296 9.22289 140.586 9.06286 141.029 8.87821C141.484 8.68125 141.983 8.58277 142.524 8.58277C143.755 8.58277 144.771 9.01978 145.571 9.89379C146.371 10.7678 146.771 11.9311 146.771 13.3837C146.771 14.8363 146.371 15.9996 145.571 16.8736C144.771 17.7476 143.755 18.1847 142.524 18.1847C141.257 18.1847 140.302 17.7538 139.662 16.8921H139.57V21.693H137.724ZM140.327 15.6549C140.844 16.2335 141.484 16.5228 142.247 16.5228C143.011 16.5228 143.645 16.2335 144.149 15.6549C144.666 15.0763 144.925 14.3193 144.925 13.3837C144.925 12.4481 144.666 11.6911 144.149 11.1125C143.645 10.5339 143.011 10.2446 142.247 10.2446C141.484 10.2446 140.844 10.5339 140.327 11.1125C139.822 11.6911 139.57 12.4481 139.57 13.3837C139.57 14.3193 139.822 15.0763 140.327 15.6549Z" />
</svg>
