<svg width="192" height="105" viewBox="0 0 192 105" fill="none" xmlns="http://www.w3.org/2000/svg">
<circle cx="139.5" cy="52.5" r="51" fill="#212023" stroke="#333333" stroke-width="3"/>
<g clip-path="url(#clip0_953_5073)">
<path d="M149.333 44H126.667C125.2 44 124 45.2 124 46.6667V60C124 61.4667 125.2 62.6667 126.667 62.6667H149.333C150.8 62.6667 152 61.4667 152 60V46.6667C152 45.2 150.8 44 149.333 44ZM149.333 60H126.667V46.6667H149.333V60ZM136 58.6667H140C142.947 58.6667 145.333 56.28 145.333 53.3333C145.333 50.3867 142.947 48 140 48H136C133.053 48 130.667 50.3867 130.667 53.3333C130.667 56.28 133.053 58.6667 136 58.6667ZM136 50.6667H140C141.467 50.6667 142.667 51.8667 142.667 53.3333C142.667 54.8 141.467 56 140 56H136C134.533 56 133.333 54.8 133.333 53.3333C133.333 51.8667 134.533 50.6667 136 50.6667ZM153.333 40H130.667C129.2 40 128 41.2 128 42.6667H153.333V58.6667C154.8 58.6667 156 57.4667 156 56V42.6667C156 41.2 154.8 40 153.333 40Z" fill="white"/>
</g>
<circle cx="52.5" cy="52.5" r="51" fill="#212023" stroke="#333333" stroke-width="3"/>
<g clip-path="url(#clip1_953_5073)">
<path d="M62 41H38C35.8 41 34 42.8 34 45V59.6667C34 61.8667 35.8 63.6667 38 63.6667H62C64.2 63.6667 66 61.8667 66 59.6667V45C66 42.8 64.2 41 62 41ZM63.3333 59.6667C63.3333 60.4 62.7333 61 62 61H38C37.2667 61 36.6667 60.4 36.6667 59.6667V50.3333H63.3333V59.6667ZM63.3333 47.6667H36.6667V45C36.6667 44.2667 37.2667 43.6667 38 43.6667H62C62.7333 43.6667 63.3333 44.2667 63.3333 45V47.6667ZM51.3333 53H39.3333V55.6667H51.3333V53Z" fill="white"/>
</g>
<defs>
<clipPath id="clip0_953_5073">
<rect width="32" height="22.6667" fill="white" transform="translate(124 40)"/>
</clipPath>
<clipPath id="clip1_953_5073">
<rect width="32" height="22.6667" fill="white" transform="translate(34 41)"/>
</clipPath>
</defs>
</svg>
