<svg width="114" height="114" viewBox="0 0 114 114" fill="none" xmlns="http://www.w3.org/2000/svg">
<circle cx="57" cy="57" r="57" fill="#FF6201"/>
<g clip-path="url(#clip0_447_6460)">
<path fill-rule="evenodd" clip-rule="evenodd" d="M29.378 61.0933H25.9714C20.6572 61.0933 24.518 49.4718 28.9919 49.4718H34.3743C35.2372 49.4718 36.7588 49.6355 37.5083 47.4374L38.6665 44.0234H31.2856C27.2887 44.0234 24.1773 45.4732 21.929 47.9051C18.0456 52.0673 16.7284 58.5679 17.6595 61.6779C18.5452 64.554 20.9525 66.4481 24.7224 66.4949L27.652 66.5182H31.2629L32.1486 63.7824C32.8072 61.8416 31.3311 61.0933 29.378 61.0933ZM70.8469 56.2763L71.9596 52.5584H60.0822C58.1065 52.5584 57.2207 53.1196 56.8801 54.2887L55.7673 58.0067H67.6448C69.6205 58.0067 70.5062 57.4455 70.8469 56.2763ZM53.9959 62.8237L52.8831 66.5416H64.7605C66.7136 66.5416 67.622 65.9804 67.9627 64.8113L69.0755 61.0933H57.1981C55.245 61.0933 54.3592 61.6545 53.9959 62.8237ZM73.6175 47.7648L74.7306 44.0468H62.8529C60.8771 44.0468 59.9914 44.608 59.6508 45.7772L58.538 49.4951H70.4154C72.3687 49.4951 73.2541 48.9339 73.6175 47.7648ZM55.6765 48.513C55.1768 45.0523 53.3827 44.0468 49.0223 44.0468H41.0738L36.4409 58.0067H39.3705C41.1192 58.0067 42.0049 58.0301 42.936 55.4579L44.8664 49.4718H47.8187C50.3396 49.4718 49.7718 52.7221 48.5 55.8788C47.3645 58.6614 45.3887 61.1167 43.0041 61.1167H38.076C36.1002 61.1167 35.1918 61.6779 34.8284 62.8471L33.6021 66.565H37.213L40.7558 66.5416C43.8898 66.5182 46.4561 66.2844 49.4538 63.5018C52.6333 60.5321 56.3123 52.9091 55.6765 48.513ZM95.6013 44.0234H88.7201L82.2476 51.1086C81.4979 51.927 80.7258 52.7454 79.9762 53.7042H79.9081L83.1329 44.0234H77.5239L69.9612 66.5416H75.5707L77.9777 59.4565L80.4758 57.2818L82.4519 63.6889C83.0648 65.6764 83.7011 66.5416 85.0638 66.5416H89.3559L84.9499 53.9614L95.6013 44.0234Z" fill="white"/>
</g>
<defs>
<clipPath id="clip0_447_6460">
<rect width="79" height="23" fill="white" transform="translate(17 44)"/>
</clipPath>
</defs>
</svg>
