<svg width="25" height="25" viewBox="0 0 25 25" fill="none" xmlns="http://www.w3.org/2000/svg">
<ellipse cx="12.3994" cy="12.5758" rx="11.9902" ry="12" fill="#FF6201"/>
<path d="M11.9792 18.9999C14.0812 18.9999 15.7852 18.6831 15.7852 18.2923C15.7852 17.9015 14.0812 17.5847 11.9792 17.5847C9.8773 17.5847 8.17334 17.9015 8.17334 18.2923C8.17334 18.6831 9.8773 18.9999 11.9792 18.9999Z" fill="white"/>
<path d="M9.82128 11.4713L6 7L7.6046 17.7083L9.82128 11.4713Z" fill="white"/>
<path d="M14.1787 11.4713L16.3952 17.6989L18 7L14.1787 11.4713Z" fill="white"/>
<path d="M11.9792 16.9913C13.8943 16.9913 15.4787 17.2543 15.7454 17.5965L11.9792 7L8.2124 17.5975C8.47718 17.2548 10.0626 16.9915 11.9792 16.9915V16.9913Z" fill="white"/>
</svg>
